# Blender v2.67 (sub 0) OBJ File: ''
# www.blender.org
mtllib Core.Holder.mtl
o Figure_1
v 0.255396 3.172201 -0.612782
v 0.255396 3.198474 -0.612782
v 0.436092 3.172201 -0.585546
v 0.436092 3.198474 -0.585546
v 0.600731 3.172201 -0.506260
v 0.600731 3.198474 -0.506260
v 0.734686 3.172201 -0.381968
v 0.734686 3.198474 -0.381968
v 0.826054 3.172201 -0.223714
v 0.826054 3.198474 -0.223714
v 0.866717 3.172201 -0.045559
v 0.866717 3.198474 -0.045559
v 0.853061 3.172201 0.136666
v 0.853061 3.198474 0.136666
v 0.786300 3.172201 0.306771
v 0.786300 3.198474 0.306771
v 0.672366 3.172201 0.449639
v 0.672366 3.198474 0.449639
v 0.521382 3.172201 0.552579
v 0.521382 3.198474 0.552579
v 0.346764 3.172201 0.606441
v 0.346764 3.198474 0.606441
v 0.164028 3.172201 0.606441
v 0.164028 3.198474 0.606441
v -0.010590 3.172201 0.552579
v -0.010590 3.198474 0.552579
v -0.161574 3.172201 0.449639
v -0.161574 3.198474 0.449639
v -0.275508 3.172201 0.306771
v -0.275508 3.198474 0.306771
v -0.342269 3.172201 0.136666
v -0.342269 3.198474 0.136666
v -0.355925 3.172201 -0.045559
v -0.355925 3.198474 -0.045559
v -0.315262 3.172201 -0.223713
v -0.315262 3.198474 -0.223713
v -0.223894 3.172201 -0.381968
v -0.223894 3.198474 -0.381968
v -0.089939 3.172201 -0.506260
v 0.074700 3.172201 -0.585546
v 0.074700 3.198474 -0.585546
v -0.089939 3.198474 -0.506260
v -0.516096 3.258999 0.763098
v -0.516096 3.258999 -0.764872
v -0.388703 3.198934 0.635705
v 1.011874 3.258999 -0.764872
v -0.388703 3.198934 -0.637479
v 1.011874 3.258999 0.763098
v 0.884481 3.198934 -0.637479
v 0.884481 3.198934 0.635705
v 0.243835 3.153853 0.503303
v 0.243835 3.083854 0.003303
v 0.460777 3.153853 0.453788
v 0.460777 3.083853 0.453788
v 0.634750 3.153853 0.315048
v 0.634750 3.083853 0.315048
v 0.731299 3.153854 0.114564
v 0.731299 3.153854 -0.107957
v 0.731299 3.083854 -0.107957
v 0.634750 3.153854 -0.308443
v 0.634750 3.083854 -0.308443
v 0.460777 3.153854 -0.447181
v 0.026893 3.153854 -0.447181
v 0.026893 3.083854 -0.447181
v -0.147081 3.153854 -0.308443
v -0.147081 3.083854 -0.308443
v -0.243629 3.153854 -0.107957
v -0.243629 3.153854 0.114564
v -0.243629 3.083854 0.114564
v -0.147081 3.153853 0.315048
v 0.026893 3.153853 0.453788
v 0.026893 3.083853 0.453788
v -0.147081 3.083853 0.315048
v 0.460777 3.083854 -0.447181
v 0.243835 3.153854 -0.496697
v 0.731299 3.083854 0.114564
v 0.731299 3.153854 0.003303
v -0.243629 3.083854 -0.107957
v 0.241950 2.854247 0.011482
v 1.735314 1.431746 -1.481882
v 0.241950 3.079051 0.011483
v -1.251414 1.431746 -1.481882
v -1.251414 1.431746 1.504846
v 1.735314 1.431746 1.504846
v -0.243629 3.153854 0.003303
vt 0.747862 0.929873
vt 0.747862 0.943533
vt 0.719124 0.929873
vt 0.719124 0.943533
vt 0.692941 0.929873
vt 0.692941 0.943533
vt 0.671637 0.929873
vt 0.671637 0.943533
vt 0.657106 0.929873
vt 0.657106 0.943533
vt 0.650639 0.929873
vt 0.349361 0.929873
vt 0.349361 0.943533
vt 0.347189 0.929873
vt 0.347189 0.943533
vt 0.336572 0.929873
vt 0.336572 0.943533
vt 0.318452 0.929873
vt 0.318452 0.943533
vt 0.294440 0.929873
vt 0.294440 0.943533
vt 0.266669 0.929873
vt 0.266669 0.943533
vt 0.237608 0.929873
vt 0.237608 0.943533
vt 0.209837 0.929873
vt 0.209837 0.943533
vt 0.185825 0.929873
vt 0.185825 0.943533
vt 0.167705 0.929873
vt 0.167705 0.943533
vt 0.157088 0.929873
vt 0.157088 0.943533
vt 0.154916 0.929873
vt 0.845084 0.929873
vt 0.845084 0.943533
vt 0.838617 0.929873
vt 0.838617 0.943533
vt 0.824086 0.929873
vt 0.824086 0.943533
vt 0.802783 0.929873
vt 0.776599 0.943533
vt 0.776599 0.929873
vt 0.802783 0.943533
vt 0.870557 0.975000
vt 0.850297 0.943772
vt 0.627554 0.975000
vt 0.647814 0.943772
vt 0.372446 0.975000
vt 0.129443 0.975000
vt 0.352186 0.943772
vt 0.650639 0.943533
vt 0.154916 0.943533
vt 0.842912 0.943533
vt 0.705560 0.943533
vt 0.762392 0.943533
vt 0.733331 0.943533
vt 0.681548 0.943533
vt 0.790163 0.943533
vt 0.652811 0.943533
vt 0.814175 0.943533
vt 0.832295 0.943533
vt 0.663428 0.943533
vt 0.762392 0.929873
vt 0.705560 0.929873
vt 0.733331 0.929873
vt 0.681548 0.929873
vt 0.790163 0.929873
vt 0.842912 0.929873
vt 0.832295 0.929873
vt 0.652811 0.929873
vt 0.663428 0.929873
vt 0.814175 0.929873
vt 0.149703 0.943772
vt 0.250300 0.920334
vt 0.250300 0.883941
vt 0.284802 0.920334
vt 0.284802 0.883940
vt 0.312470 0.920334
vt 0.312470 0.883940
vt 0.327825 0.920334
vt 0.672175 0.920334
vt 0.672175 0.883941
vt 0.687530 0.920334
vt 0.687530 0.883941
vt 0.715198 0.920334
vt 0.784202 0.920334
vt 0.784202 0.883941
vt 0.811870 0.920334
vt 0.811870 0.883941
vt 0.827225 0.920334
vt 0.172775 0.920334
vt 0.172775 0.883941
vt 0.188130 0.920334
vt 0.215798 0.920334
vt 0.215798 0.883940
vt 0.188130 0.883940
vt 0.715198 0.883941
vt 0.749700 0.883941
vt 0.749700 0.920334
vt 0.715198 0.883940
vt 0.687530 0.883940
vt 0.784202 0.883940
vt 0.811870 0.883940
vt 0.827225 0.883941
vt 0.250000 0.764567
vt 0.487500 0.025000
vt 0.250000 0.881444
vt 0.012500 0.025000
vt 0.750000 0.881444
vt 0.750000 0.764567
vt 0.987500 0.025000
vt 0.327825 0.883941
vn 0.149045 0.000000 -0.988830
vn 0.433884 0.000000 -0.900969
vn 0.680172 0.000000 -0.733052
vn 0.866026 0.000000 -0.500000
vn 0.974928 0.000000 -0.222522
vn 0.997204 -0.000000 0.074731
vn 0.930874 0.000000 0.365340
vn 0.781832 0.000000 0.623489
vn 0.563319 0.000000 0.826239
vn 0.294753 0.000000 0.955573
vn -0.000000 0.000000 1.000000
vn -0.294753 0.000000 0.955574
vn -0.563323 0.000000 0.826237
vn -0.781830 0.000000 0.623492
vn -0.930874 0.000000 0.365340
vn -0.997204 0.000000 0.074731
vn -0.974927 0.000000 -0.222524
vn -0.866027 -0.000000 -0.499998
vn -0.680172 -0.000000 -0.733052
vn -0.000000 1.000000 0.000000
vn -0.149045 0.000000 -0.988830
vn -0.433884 -0.000000 -0.900969
vn 0.000000 -1.000000 -0.000000
vn -0.426466 -0.904503 -0.000000
vn -0.000000 -0.904502 -0.426469
vn 0.426469 -0.904502 -0.000000
vn 0.000000 -0.904504 0.426466
vn -0.426469 -0.904502 -0.000000
vn 0.426466 -0.904503 0.000000
vn 0.031629 -0.989847 0.138576
vn 0.623493 -0.000000 0.781829
vn 0.900967 -0.000000 0.433887
vn 0.900968 0.000000 -0.433885
vn 0.623490 0.000000 -0.781831
vn -0.623488 0.000000 -0.781833
vn -0.900970 0.000000 -0.433882
vn -0.900969 -0.000000 0.433884
vn 0.900969 -0.000000 0.433884
vn -0.623491 0.000000 0.781831
vn 0.000006 1.000000 0.000008
vn -0.900969 0.000000 -0.433884
vn -0.031630 -0.989846 -0.138578
vn 1.000000 0.000000 -0.000000
vn -0.000001 -1.000000 -0.000002
vn 0.000001 -1.000000 -0.000002
vn 0.707107 0.000000 0.707107
vn -0.707107 0.000000 0.707107
vn -0.707107 0.000000 -0.707107
vn 0.000001 1.000000 0.000001
vn -0.463032 -0.762770 -0.451423
vn -1.000000 0.000000 -0.000000
vn 0.460980 -0.765191 -0.449422
vn 0.469741 -0.754727 0.457963
vn -0.471843 -0.752166 0.460011
vn -0.031629 -0.989846 0.138576
vn -0.000006 1.000000 0.000008
vn -0.000001 1.000000 0.000003
vn 0.000000 1.000000 0.000002
vn -0.000000 1.000000 0.000003
vn 0.031630 -0.989846 -0.138578
vn 0.900969 0.000000 -0.433884
vn 0.120657 -0.840232 -0.528632
vn 0.120657 -0.840230 0.528636
vn 0.000001 -1.000000 -0.000004
vn -0.000001 -1.000000 -0.000004
vn -0.000001 1.000000 0.000001
vn -0.120657 -0.840230 0.528636
vn -0.120657 -0.840232 -0.528632
usemtl None
s off
f 1/1/1 2/2/1 3/3/1
f 3/3/2 4/4/2 5/5/2
f 5/5/3 6/6/3 7/7/3
f 7/7/4 8/8/4 9/9/4
f 9/9/5 10/10/5 11/11/5
f 11/12/6 12/13/6 13/14/6
f 13/14/7 14/15/7 15/16/7
f 15/16/8 16/17/8 17/18/8
f 17/18/9 18/19/9 19/20/9
f 19/20/10 20/21/10 21/22/10
f 21/22/11 22/23/11 23/24/11
f 23/24/12 24/25/12 25/26/12
f 25/26/13 26/27/13 27/28/13
f 27/28/14 28/29/14 29/30/14
f 29/30/15 30/31/15 31/32/15
f 31/32/16 32/33/16 33/34/16
f 33/35/17 34/36/17 35/37/17
f 35/37/18 36/38/18 37/39/18
f 37/39/19 38/40/19 39/41/19
f 4/4/20 2/2/20 6/6/20
f 41/42/21 1/1/21 40/43/21
f 39/41/22 42/44/22 40/43/22
f 1/1/23 3/3/23 40/43/23
f 43/45/24 44/45/24 45/46/24
f 44/45/25 46/47/25 47/46/25
f 46/47/26 48/47/26 49/48/26
f 48/49/27 43/50/27 50/51/27
f 45/46/23 47/46/23 50/48/23
f 48/47/20 46/47/20 43/45/20
f 2/2/1 4/4/1 3/3/1
f 4/4/2 6/6/2 5/5/2
f 6/6/3 8/8/3 7/7/3
f 8/8/4 10/10/4 9/9/4
f 10/10/5 12/52/5 11/11/5
f 12/13/6 14/15/6 13/14/6
f 14/15/7 16/17/7 15/16/7
f 16/17/8 18/19/8 17/18/8
f 18/19/9 20/21/9 19/20/9
f 20/21/10 22/23/10 21/22/10
f 22/23/11 24/25/11 23/24/11
f 24/25/12 26/27/12 25/26/12
f 26/27/13 28/29/13 27/28/13
f 28/29/14 30/31/14 29/30/14
f 30/31/15 32/33/15 31/32/15
f 32/33/16 34/53/16 33/34/16
f 34/36/17 36/38/17 35/37/17
f 36/38/18 38/40/18 37/39/18
f 38/40/19 42/44/19 39/41/19
f 2/2/20 41/42/20 6/6/20
f 41/42/20 42/44/20 6/6/20
f 42/44/20 38/40/20 6/6/20
f 38/40/20 36/38/20 6/6/20
f 36/38/20 34/36/20 32/54/20
f 6/6/20 36/38/20 32/54/20
f 8/8/20 6/6/20 32/54/20
f 10/10/20 8/8/20 32/54/20
f 20/55/20 24/56/20 22/57/20
f 18/58/20 24/56/20 20/55/20
f 18/58/20 26/59/20 24/56/20
f 12/52/20 10/10/20 14/60/20
f 10/10/20 32/54/20 14/60/20
f 18/58/20 28/61/20 26/59/20
f 30/62/20 28/61/20 18/58/20
f 30/62/20 18/58/20 16/63/20
f 32/54/20 30/62/20 14/60/20
f 30/62/20 16/63/20 14/60/20
f 2/2/21 1/1/21 41/42/21
f 42/44/22 41/42/22 40/43/22
f 3/3/23 5/5/23 40/43/23
f 5/5/23 7/7/23 40/43/23
f 7/7/23 9/9/23 40/43/23
f 40/43/23 9/9/23 39/41/23
f 39/41/23 35/37/23 37/39/23
f 39/41/23 9/9/23 35/37/23
f 9/9/23 11/11/23 35/37/23
f 23/64/23 19/65/23 21/66/23
f 23/64/23 17/67/23 19/65/23
f 25/68/23 17/67/23 23/64/23
f 35/37/23 31/69/23 33/35/23
f 35/37/23 11/11/23 31/69/23
f 31/69/23 11/11/23 29/70/23
f 11/11/23 13/71/23 29/70/23
f 13/71/23 15/72/23 29/70/23
f 15/72/23 17/67/23 29/70/23
f 17/67/23 25/68/23 27/73/23
f 29/70/23 17/67/23 27/73/23
f 44/45/28 47/46/28 45/46/28
f 46/47/25 49/48/25 47/46/25
f 48/47/29 50/48/29 49/48/29
f 43/50/27 45/74/27 50/51/27
f 47/46/23 49/48/23 50/48/23
f 46/47/20 44/45/20 43/45/20
f 51/75/30 52/76/30 53/77/30
f 53/77/31 54/78/31 55/79/31
f 55/79/32 56/80/32 57/81/32
f 58/82/33 59/83/33 60/84/33
f 60/84/34 61/85/34 62/86/34
f 63/87/35 64/88/35 65/89/35
f 65/89/36 66/90/36 67/91/36
f 68/92/37 69/93/37 70/94/37
f 71/95/38 72/96/38 52/76/38
f 70/94/39 73/97/39 71/95/39
f 53/77/40 55/79/40 57/81/40
f 62/86/41 74/98/41 52/99/41
f 75/100/42 52/99/42 63/87/42
f 57/82/43 76/83/43 77/82/43
f 54/101/44 52/99/44 56/102/44
f 52/99/45 72/103/45 73/104/45
f 52/99/23 78/105/23 66/90/23
f 52/99/23 74/98/23 61/85/23
f 79/106/46 80/107/46 81/108/46
f 81/108/47 82/109/47 79/106/47
f 81/110/48 79/111/48 83/112/48
f 84/107/47 81/108/47 79/106/47
f 75/75/49 85/92/49 51/75/49
f 75/100/50 79/111/50 85/91/50
f 67/91/51 78/105/51 85/91/51
f 79/111/52 75/100/52 77/82/52
f 77/81/53 51/75/53 79/106/53
f 51/75/54 85/92/54 79/106/54
f 52/76/37 54/78/37 53/77/37
f 54/78/31 56/80/31 55/79/31
f 56/80/32 76/113/32 57/81/32
f 59/83/33 61/85/33 60/84/33
f 61/85/34 74/98/34 62/86/34
f 64/88/35 66/90/35 65/89/35
f 66/90/36 78/105/36 67/91/36
f 69/93/37 73/97/37 70/94/37
f 51/75/55 71/95/55 52/76/55
f 73/97/39 72/96/39 71/95/39
f 63/87/20 62/86/20 75/100/20
f 71/95/56 68/92/56 70/94/56
f 62/86/20 58/82/20 60/84/20
f 63/87/20 58/82/20 62/86/20
f 65/89/20 58/82/20 63/87/20
f 67/91/20 58/82/20 65/89/20
f 71/95/57 51/75/57 68/92/57
f 51/75/58 53/77/58 68/92/58
f 53/77/59 57/81/59 68/92/59
f 57/82/20 77/82/20 68/91/20
f 77/82/20 58/82/20 67/91/20
f 68/91/20 77/82/20 85/91/20
f 77/82/20 67/91/20 85/91/20
f 75/100/60 62/86/60 52/99/60
f 52/99/61 64/88/61 63/87/61
f 77/82/43 59/83/43 58/82/43
f 76/83/62 52/99/62 77/82/62
f 52/76/63 59/113/63 77/81/63
f 52/99/64 76/83/64 56/102/64
f 69/105/65 52/99/65 73/104/65
f 64/88/23 52/99/23 66/90/23
f 59/83/23 52/99/23 61/85/23
f 77/81/66 75/75/66 51/75/66
f 85/91/51 69/105/51 68/91/51
f 78/93/67 52/76/67 85/92/67
f 52/99/68 69/105/68 85/91/68
