# Blender v2.67 (sub 0) OBJ File: ''
# www.blender.org
mtllib Drone.Wheel.Body.mtl
o Body
v 0.222266 0.613066 0.005998
v 0.222635 0.795640 0.005993
v 0.191718 0.795640 0.121413
v 0.193134 0.613066 0.114684
v 0.169527 0.613437 0.004302
v 0.142211 0.613437 0.106256
v 0.169157 0.537582 0.005995
v 0.143639 0.537582 0.101217
v 0.107220 0.795640 0.205899
v 0.100486 0.613066 0.194250
v 0.093754 0.613437 0.180892
v -0.008200 0.795640 0.236832
v -0.008200 0.613066 0.223366
v -0.008200 0.613437 0.208207
v 0.087022 0.537582 0.170920
v -0.008200 0.537582 0.196434
v -0.123619 0.795640 0.205899
v -0.116888 0.613066 0.194250
v -0.110153 0.613437 0.180892
v -0.103420 0.537582 0.170920
v -0.208111 0.795640 0.121413
v -0.209542 0.613066 0.114686
v -0.155338 0.613437 0.106256
v -0.239043 0.795640 0.005993
v -0.238658 0.613066 0.005998
v -0.182657 0.613437 0.004302
v -0.156764 0.537582 0.101217
v -0.182272 0.537582 0.005995
v -0.208111 0.795640 -0.109426
v -0.209542 0.613066 -0.102687
v -0.155338 0.613437 -0.097652
v -0.156764 0.537582 -0.089226
v -0.116888 0.613066 -0.170400
v -0.110155 0.613437 -0.158734
v -0.008201 0.613066 -0.199515
v -0.008200 0.613437 -0.186051
v -0.103420 0.537582 -0.140301
v -0.008200 0.537582 -0.165813
v 0.100486 0.613066 -0.170400
v 0.093753 0.613437 -0.158734
v 0.087022 0.537582 -0.140301
v 0.193134 0.613066 -0.102690
v 0.142211 0.613437 -0.097652
v 0.191718 0.795640 -0.109426
v 0.222635 0.795640 0.005993
v 0.222266 0.613066 0.005998
v 0.169527 0.613437 0.004302
v 0.143639 0.537582 -0.089226
v 0.169157 0.537582 0.005995
v -0.123619 0.795640 -0.193913
v -0.008200 0.795640 -0.224846
v 0.107220 0.795640 -0.193913
v 0.152952 0.966676 0.005997
v 0.215294 0.891500 0.005994
v 0.185362 0.891500 -0.105756
v 0.130041 0.966676 -0.079533
v 0.103548 0.891500 -0.187558
v 0.077328 0.969985 -0.142149
v -0.008203 0.891500 -0.217505
v -0.008203 0.969985 -0.165074
v -0.119953 0.891500 -0.187558
v -0.093733 0.969985 -0.142149
v -0.201755 0.891500 -0.105756
v -0.147107 0.966676 -0.079533
v -0.231702 0.891500 0.005994
v -0.170022 0.966676 0.005997
v -0.201755 0.891500 0.117745
v -0.147107 0.966676 0.091528
v -0.119953 0.891500 0.199559
v -0.093733 0.969985 0.154138
v -0.008203 0.891500 0.229491
v -0.008203 0.969985 0.177060
v 0.103548 0.891500 0.199559
v 0.077328 0.969985 0.154138
v 0.185362 0.891500 0.117745
v 0.130041 0.966676 0.091528
v 0.215294 0.891500 0.005994
v 0.152952 0.966676 0.005997
v 0.084373 0.976218 0.006006
v 0.071971 0.976218 -0.040282
v 0.038085 0.976218 -0.074168
v -0.008204 0.976218 -0.086572
v -0.054493 0.976218 -0.074168
v -0.088379 0.976218 -0.040282
v -0.100781 0.976218 0.006006
v -0.088379 0.976218 0.052295
v -0.054493 0.976218 0.086180
v -0.008204 0.976218 0.098583
v 0.038085 0.976218 0.086180
v 0.071971 0.976218 0.052295
v 0.084373 0.976218 0.006006
v -0.008204 0.976156 0.006011
v -0.008204 0.976156 0.006011
v -0.008204 0.976156 0.006011
v -0.008204 0.976156 0.006011
v -0.008204 0.976156 0.006011
v -0.008204 0.976156 0.006011
v -0.008204 0.976156 0.006011
v -0.008204 0.976156 0.006011
v -0.008204 0.976156 0.006011
v -0.008204 0.976156 0.006011
v -0.008204 0.976156 0.006011
v -0.008204 0.976156 0.006011
v -0.120813 0.755551 -0.195976
v -0.008200 0.754520 -0.225878
v -0.120813 0.755551 -0.195976
v 0.104413 0.755551 -0.195976
v -0.008200 0.754520 -0.225878
v 0.104413 0.755551 -0.195976
v 0.144276 0.474932 0.098206
v 0.168988 0.474932 0.005995
v -0.008199 0.474932 0.182108
v 0.081805 0.474932 0.157995
v -0.008199 0.456722 0.162639
v 0.080289 0.456722 0.138934
v -0.098203 0.474932 0.157995
v -0.008199 0.474932 0.182108
v -0.096688 0.456722 0.138934
v -0.183580 0.474932 0.005995
v -0.158865 0.474932 0.098209
v -0.158865 0.474932 -0.087912
v -0.183580 0.474932 0.005995
v -0.008200 0.474932 -0.164997
v -0.098203 0.474932 -0.140878
v -0.008199 0.456722 -0.147267
v -0.096688 0.456722 -0.123556
v 0.081805 0.474932 -0.140878
v -0.008200 0.474932 -0.164997
v 0.080289 0.456722 -0.123556
v 0.168988 0.474932 0.005995
v 0.144276 0.474932 -0.087912
v 0.119627 0.537582 0.130779
v 0.119627 0.537582 -0.110888
v 0.081805 0.474932 0.157995
v 0.117933 0.474932 0.123419
v 0.119627 0.537582 0.130779
v 0.144276 0.474932 0.098206
v 0.145073 0.219681 0.094473
v 0.117933 0.474932 0.123419
v 0.116543 0.423497 0.114055
v 0.144276 0.474932 -0.087912
v 0.117933 0.474932 -0.110248
v 0.119627 0.537582 -0.110888
v 0.081805 0.474932 -0.140878
v 0.117933 0.474932 -0.110248
v 0.116543 0.423497 -0.100575
v 0.145073 0.219681 -0.082504
v -0.140781 0.537582 0.122102
v -0.140781 0.537582 -0.104529
v -0.158865 0.474932 0.098209
v -0.138242 0.474932 0.118535
v -0.140781 0.537582 0.122102
v -0.098203 0.474932 0.157995
v -0.138242 0.474932 0.118535
v -0.136041 0.420656 0.111927
v -0.161458 0.224483 0.094473
v -0.098203 0.474932 -0.140878
v -0.138242 0.474932 -0.105920
v -0.140781 0.537582 -0.104529
v -0.158865 0.474932 -0.087912
v -0.161458 0.224483 -0.082504
v -0.138242 0.474932 -0.105920
v -0.136041 0.420656 -0.098612
v -0.136041 0.420656 0.111927
v 0.116543 0.423497 0.114055
v 0.116543 0.423497 -0.100575
v -0.136041 0.420656 -0.098612
v 0.173682 0.224606 -0.025137
v 0.173682 0.224606 0.037101
v 0.189194 0.256908 0.005982
v -0.186904 0.233516 0.040495
v -0.186904 0.233516 -0.028529
v -0.203171 0.262910 0.005982
v 0.173682 0.224606 0.037101
v 0.180499 0.350784 0.005987
v 0.180499 0.350784 0.005987
v 0.173682 0.224606 -0.025137
v 0.189194 0.256908 0.005982
v -0.194476 0.357063 0.005987
v -0.186904 0.233516 0.040495
v -0.186904 0.233516 -0.028529
v -0.194476 0.357063 0.005987
vt 0.487120 0.518982
vt 0.487500 0.748244
vt 0.455691 0.748244
vt 0.457148 0.518982
vt 0.567140 0.519448
vt 0.512880 0.518982
vt 0.542852 0.518982
vt 0.595245 0.519448
vt 0.432479 0.424195
vt 0.432860 0.519448
vt 0.404755 0.519448
vt 0.406225 0.424195
vt 0.368755 0.748244
vt 0.361826 0.518982
vt 0.638174 0.518982
vt 0.645100 0.519448
vt 0.250004 0.748244
vt 0.250004 0.518982
vt 0.749996 0.518982
vt 0.749996 0.519448
vt 0.347974 0.424195
vt 0.354900 0.519448
vt 0.250004 0.519448
vt 0.250004 0.424195
vt 0.131255 0.748244
vt 0.138180 0.518982
vt 0.861820 0.518982
vt 0.854891 0.519448
vt 0.145109 0.519448
vt 0.152036 0.424195
vt 0.044325 0.748244
vt 0.042852 0.518982
vt 0.957148 0.518982
vt 0.901380 0.519448
vt 0.012500 0.748244
vt 0.012896 0.518982
vt 0.987104 0.518982
vt 0.929487 0.519448
vt 0.097153 0.424195
vt 0.098620 0.519448
vt 0.070513 0.519448
vt 0.070909 0.424195
vt 0.987500 0.748244
vt 0.955675 0.748244
vt 0.929091 0.424195
vt 0.902847 0.424195
vt 0.145107 0.519448
vt 0.250003 0.518982
vt 0.847964 0.424195
vt 0.854893 0.519448
vt 0.749996 0.424195
vt 0.354899 0.519448
vt 0.645101 0.519448
vt 0.652026 0.424195
vt 0.544309 0.748244
vt 0.512500 0.748244
vt 0.593776 0.424195
vt 0.567521 0.424195
vt 0.631245 0.748244
vt 0.749996 0.748244
vt 0.868745 0.748244
vt 0.584194 0.963018
vt 0.520053 0.868618
vt 0.550849 0.868618
vt 0.607766 0.963018
vt 0.635023 0.868618
vt 0.662000 0.967173
vt 0.749999 0.868618
vt 0.749999 0.967173
vt 0.864974 0.868618
vt 0.837997 0.967173
vt 0.949136 0.868618
vt 0.892911 0.963018
vt 0.979947 0.868618
vt 0.916487 0.963018
vt 0.083513 0.963018
vt 0.020053 0.868618
vt 0.050864 0.868618
vt 0.107089 0.963018
vt 0.135026 0.868618
vt 0.162003 0.967173
vt 0.250001 0.868618
vt 0.250001 0.967173
vt 0.364977 0.868618
vt 0.338000 0.967173
vt 0.449151 0.868618
vt 0.392234 0.963018
vt 0.479947 0.868618
vt 0.415806 0.963018
vt 0.654752 0.975000
vt 0.667512 0.975000
vt 0.702375 0.975000
vt 0.750000 0.975000
vt 0.797625 0.975000
vt 0.832488 0.975000
vt 0.845248 0.975000
vt 0.154752 0.975000
vt 0.167512 0.975000
vt 0.202375 0.975000
vt 0.250000 0.975000
vt 0.297625 0.975000
vt 0.332488 0.975000
vt 0.345248 0.975000
vt 0.250000 0.974922
vt 0.750000 0.974922
vt 0.865858 0.697904
vt 0.749996 0.696609
vt 0.749997 0.518982
vt 0.634133 0.697904
vt 0.406880 0.345524
vt 0.432305 0.345524
vt 0.250005 0.345524
vt 0.342606 0.345524
vt 0.250005 0.322658
vt 0.341047 0.322658
vt 0.157404 0.345524
vt 0.158963 0.322658
vt 0.069563 0.345524
vt 0.094992 0.345524
vt 0.905008 0.345524
vt 0.930437 0.345524
vt 0.749996 0.345524
vt 0.842596 0.345524
vt 0.749995 0.322658
vt 0.841037 0.322658
vt 0.657394 0.345524
vt 0.658953 0.322658
vt 0.567695 0.345524
vt 0.593120 0.345524
vt 0.381520 0.424195
vt 0.618480 0.424195
vt 0.379777 0.345524
vt 0.407700 0.025000
vt 0.378347 0.280936
vt 0.620223 0.345524
vt 0.621653 0.280936
vt 0.592300 0.025000
vt 0.113597 0.424195
vt 0.886403 0.424195
vt 0.116210 0.345524
vt 0.118474 0.277369
vt 0.092324 0.031030
vt 0.883790 0.345524
vt 0.907676 0.031030
vt 0.881526 0.277369
vt 0.437134 0.031184
vt 0.562866 0.031184
vt 0.546906 0.071747
vt 0.933856 0.042373
vt 0.066144 0.042373
vt 0.950593 0.079284
vt 0.453094 0.071747
vt 0.444148 0.189629
vt 0.555852 0.189629
vt 0.058353 0.197514
vt 0.049407 0.079284
vt 0.941647 0.197514
vn 0.965944 -0.001945 0.258743
vn 0.965902 -0.002051 0.258899
vn -0.006974 -0.999974 -0.001869
vn -0.006976 -0.999974 -0.001869
vn 0.965931 0.001065 0.258797
vn 0.965917 0.000988 0.258851
vn 0.706907 -0.020575 0.707007
vn 0.649813 -0.072245 0.756653
vn -0.006108 -0.999956 -0.007113
vn -0.024076 -0.999588 -0.015631
vn 0.258215 -0.070998 0.963475
vn 0.258112 -0.071064 0.963498
vn -0.006554 -0.999679 -0.024465
vn 0.255927 -0.148292 0.955254
vn 0.255953 -0.148259 0.955253
vn -0.258216 -0.071062 0.963470
vn -0.258109 -0.070992 0.963504
vn 0.006554 -0.999679 -0.024465
vn 0.006554 -0.999679 -0.024463
vn -0.255930 -0.148260 0.955258
vn -0.255956 -0.148297 0.955246
vn -0.705297 -0.071007 0.705347
vn -0.651312 -0.022841 0.758466
vn 0.016640 -0.999674 -0.019378
vn 0.006255 -0.999973 -0.003787
vn -0.965913 -0.001967 0.258860
vn -0.965939 -0.002030 0.258762
vn 0.006570 -0.999977 -0.001760
vn 0.006571 -0.999977 -0.001761
vn -0.965924 0.000965 0.258823
vn -0.965942 0.000872 0.258756
vn -0.965912 -0.002044 -0.258862
vn -0.965937 -0.001980 -0.258768
vn 0.006679 -0.999976 0.001789
vn 0.006678 -0.999976 0.001789
vn -0.965870 -0.010679 -0.258809
vn -0.965888 -0.010584 -0.258744
vn 0.006072 -0.999947 0.008309
vn 0.024138 -0.999549 0.017855
vn 0.007375 -0.999594 0.027530
vn 0.007380 -0.999593 0.027542
vn -0.250615 -0.249549 -0.935370
vn -0.250611 -0.249555 -0.935370
vn -0.007379 -0.999593 0.027543
vn -0.007377 -0.999594 0.027530
vn 0.250620 -0.249554 -0.935368
vn 0.250607 -0.249536 -0.935376
vn -0.016340 -0.999617 0.022358
vn -0.006755 -0.999963 0.005359
vn 0.965943 -0.002055 -0.258745
vn 0.965904 -0.001959 -0.258894
vn -0.007097 -0.999973 0.001902
vn -0.007095 -0.999973 0.001901
vn 0.965878 -0.010563 -0.258782
vn 0.965864 -0.010488 -0.258839
vn -0.000001 1.000000 -0.000000
vn 0.000000 1.000000 0.000000
vn 0.000000 1.000000 0.000001
vn 0.000001 1.000000 -0.000000
vn 0.753893 0.625197 -0.201929
vn 0.753878 0.625210 -0.201942
vn 0.561037 0.608590 -0.561119
vn 0.663075 0.528326 -0.530287
vn 0.217492 0.542224 -0.811597
vn 0.217537 0.542187 -0.811610
vn -0.217499 0.542192 -0.811617
vn -0.217532 0.542230 -0.811583
vn -0.594132 0.542232 -0.594131
vn -0.614260 0.617781 -0.490950
vn -0.757035 0.621081 -0.202872
vn -0.757016 0.621121 -0.202818
vn -0.757017 0.621105 0.202865
vn -0.757059 0.621066 0.202827
vn -0.562840 0.605404 0.562758
vn -0.659268 0.529307 0.534041
vn -0.217379 0.542299 0.811578
vn -0.217512 0.542189 0.811615
vn 0.217393 0.542204 0.811637
vn 0.217489 0.542313 0.811539
vn 0.594102 0.542295 0.594103
vn 0.615039 0.621724 0.484959
vn 0.753892 0.625199 0.201927
vn 0.753898 0.625185 0.201945
vn 0.137712 0.989785 -0.036889
vn 0.137702 0.989786 -0.036895
vn 0.126284 0.990525 -0.053967
vn 0.057935 0.996638 -0.057935
vn 0.021211 0.996638 -0.079135
vn 0.021205 0.996639 -0.079132
vn -0.021210 0.996638 -0.079132
vn -0.021207 0.996638 -0.079138
vn -0.100531 0.994382 -0.033144
vn -0.096477 0.990648 -0.096477
vn -0.136421 0.989976 -0.036550
vn -0.136422 0.989976 -0.036552
vn -0.136432 0.989975 0.036552
vn -0.136430 0.989975 0.036553
vn -0.124846 0.990702 0.054069
vn -0.057948 0.996636 0.057950
vn -0.021215 0.996636 0.079160
vn -0.021210 0.996636 0.079157
vn 0.021214 0.996636 0.079157
vn 0.021211 0.996636 0.079161
vn 0.101275 0.994320 0.032715
vn 0.097134 0.990520 0.097137
vn 0.137717 0.989784 0.036890
vn 0.137722 0.989783 0.036899
vn -0.000670 1.000000 0.000179
vn -0.000490 1.000000 0.000490
vn -0.000179 1.000000 0.000670
vn 0.000179 1.000000 0.000670
vn 0.000490 1.000000 0.000490
vn 0.000670 1.000000 0.000179
vn 0.000670 1.000000 -0.000179
vn 0.000490 1.000000 -0.000490
vn 0.000179 1.000000 -0.000670
vn -0.000179 1.000000 -0.000670
vn -0.000490 1.000000 -0.000490
vn -0.000670 1.000000 -0.000179
vn -0.707025 -0.013101 -0.707067
vn -0.708637 -0.020478 -0.705276
vn -0.582523 -0.159123 -0.797086
vn -0.258794 0.024235 -0.965628
vn -0.256234 0.031781 -0.966092
vn -0.254641 -0.177643 -0.950579
vn -0.254090 -0.177202 -0.950809
vn 0.258739 0.031565 -0.965431
vn 0.256353 0.024251 -0.966279
vn 0.254662 -0.177178 -0.950660
vn 0.254072 -0.177658 -0.950729
vn 0.582530 -0.159130 -0.797080
vn 0.708619 -0.020526 -0.705293
vn 0.707000 -0.013116 -0.707092
vn 0.965914 -0.002620 0.258850
vn 0.965912 -0.002606 0.258859
vn 0.252722 -0.215674 0.943195
vn 0.252696 -0.215632 0.943211
vn 0.180015 -0.718363 0.671974
vn 0.180019 -0.718395 0.671939
vn -0.252729 -0.215633 0.943202
vn -0.252693 -0.215683 0.943200
vn -0.180004 -0.718397 0.671941
vn -0.180029 -0.718357 0.671976
vn -0.965746 0.020163 0.258703
vn -0.965717 0.019959 0.258829
vn -0.965591 0.026957 -0.258665
vn -0.966871 0.020186 -0.254467
vn -0.258778 -0.012580 -0.965855
vn -0.258826 -0.012657 -0.965841
vn -0.188553 -0.685048 -0.703675
vn -0.188558 -0.685093 -0.703629
vn 0.258773 -0.012653 -0.965855
vn 0.258821 -0.012580 -0.965843
vn 0.188546 -0.685084 -0.703641
vn 0.188564 -0.685052 -0.703667
vn 0.965913 -0.002605 -0.258852
vn 0.967066 0.004495 -0.254487
vn 0.767416 -0.150053 0.623343
vn 0.836466 -0.073470 0.543071
vn 0.775917 -0.027260 0.630246
vn 0.668210 -0.069698 -0.740701
vn 0.777382 -0.123835 -0.616719
vn 0.651350 -0.233254 -0.722036
vn 0.677116 -0.202348 0.707509
vn 0.772721 -0.094629 0.627652
vn 0.776011 -0.022404 0.630322
vn 0.687764 -0.103015 0.718588
vn 0.691418 -0.008406 0.722406
vn -0.452699 -0.147851 0.879320
vn -0.174385 -0.705020 0.687413
vn 0.683748 -0.148545 0.714439
vn 0.646685 -0.009421 -0.762699
vn 0.669618 -0.025688 -0.742261
vn 0.669026 -0.048881 -0.741630
vn 0.646476 -0.025269 -0.762516
vn 0.510058 -0.614738 -0.601612
vn 0.403978 -0.179603 -0.896964
vn 0.442146 -0.017619 -0.896770
vn 0.638500 -0.158874 -0.753045
vn -0.793878 -0.025435 0.607544
vn -0.854109 -0.055891 0.517082
vn -0.785295 -0.148712 0.600996
vn -0.672950 -0.230543 -0.702843
vn -0.799934 -0.099867 -0.591720
vn -0.690017 -0.067082 -0.720678
vn -0.701920 -0.010654 0.712176
vn -0.792370 -0.066637 0.606390
vn -0.779951 -0.188093 0.596906
vn -0.700273 -0.068835 0.710548
vn -0.547074 -0.626557 0.555101
vn -0.480861 -0.125155 0.867818
vn -0.527670 -0.007208 0.849419
vn -0.697350 -0.114421 0.707539
vn -0.656942 -0.047775 -0.752426
vn -0.691530 -0.011989 -0.722248
vn -0.691552 0.008043 -0.722282
vn -0.657704 -0.009931 -0.753211
vn -0.657707 -0.009455 -0.753215
vn 0.293075 -0.115899 -0.949039
vn 0.159585 -0.673385 -0.721862
vn -0.652363 -0.127059 -0.747181
vn -0.236764 -0.403484 0.883823
vn 0.104111 -0.915492 0.388633
vn -0.000002 -0.599388 0.800458
vn 0.011247 -0.999937 -0.000000
vn -0.401472 -0.775309 -0.487563
vn 0.032669 -0.992002 -0.121921
vn -0.042383 -0.986501 -0.158173
vn 0.675647 -0.737225 -0.000000
vn -0.888778 -0.084469 0.450487
vn -0.961123 -0.276119 -0.000000
vn -0.965335 -0.112498 -0.235527
vn 0.169654 -0.985504 0.000000
vn 0.901446 -0.432891 0.000000
vn 0.896756 -0.077422 -0.435700
vn 0.964993 -0.262277 -0.000000
vn 0.971841 -0.108751 0.209041
vn -0.334533 -0.942384 0.000000
vn -0.874952 -0.484209 0.000000
vn 0.856831 0.079334 0.509457
vn 0.890982 0.062749 0.449682
vn 0.929625 -0.002487 0.368498
vn 0.962066 0.089186 0.257828
vn 0.963210 0.089325 -0.253473
vn 0.930811 -0.004837 -0.365470
vn 0.890962 0.062794 -0.449715
vn 0.856803 0.079386 -0.509497
vn -0.962083 0.088919 0.257855
vn -0.934725 0.004377 0.355345
vn -0.898213 0.066318 0.434529
vn -0.873379 0.080631 0.480321
vn -0.873345 0.080679 -0.480374
vn -0.898199 0.066354 -0.434552
vn -0.935879 0.002082 -0.352317
vn -0.963225 0.089059 -0.253507
usemtl Metal.001
s off
f 1/1/1 2/2/1 3/3/1
f 4/4/2 1/1/2 3/3/2
f 5/5/3 1/6/3 4/7/3
f 6/8/4 5/5/4 4/7/4
f 7/9/5 5/10/5 6/11/5
f 8/12/6 7/9/6 6/11/6
f 4/4/7 3/3/7 9/13/7
f 10/14/8 4/4/8 9/13/8
f 6/8/9 4/7/9 10/15/9
f 11/16/10 6/8/10 10/15/10
f 10/14/11 9/13/11 12/17/11
f 13/18/12 10/14/12 12/17/12
f 11/16/13 10/15/13 13/19/13
f 14/20/13 11/16/13 13/19/13
f 15/21/14 11/22/14 14/23/14
f 16/24/15 15/21/15 14/23/15
f 13/18/16 12/17/16 17/25/16
f 18/26/17 13/18/17 17/25/17
f 14/20/18 13/19/18 18/27/18
f 19/28/19 14/20/19 18/27/19
f 16/24/20 14/23/20 19/29/20
f 20/30/21 16/24/21 19/29/21
f 18/26/22 17/25/22 21/31/22
f 22/32/23 18/26/23 21/31/23
f 19/28/24 18/27/24 22/33/24
f 23/34/25 19/28/25 22/33/25
f 22/32/26 21/31/26 24/35/26
f 25/36/27 22/32/27 24/35/27
f 23/34/28 22/33/28 25/37/28
f 26/38/29 23/34/29 25/37/29
f 27/39/30 23/40/30 26/41/30
f 28/42/31 27/39/31 26/41/31
f 25/37/32 24/43/32 29/44/32
f 30/33/33 25/37/33 29/44/33
f 26/41/34 25/36/34 30/32/34
f 31/40/35 26/41/35 30/32/35
f 28/45/36 26/38/36 31/34/36
f 32/46/37 28/45/37 31/34/37
f 31/40/38 30/32/38 33/26/38
f 34/47/39 31/40/39 33/26/39
f 34/47/40 33/26/40 35/48/40
f 36/23/41 34/47/41 35/48/41
f 37/49/42 34/50/42 36/20/42
f 38/51/43 37/49/43 36/20/43
f 36/23/44 35/48/44 39/14/44
f 40/52/45 36/23/45 39/14/45
f 38/51/46 36/20/46 40/53/46
f 41/54/47 38/51/47 40/53/47
f 40/52/48 39/14/48 42/4/48
f 43/11/49 40/52/49 42/4/49
f 42/7/50 44/55/50 45/56/50
f 46/6/51 42/7/51 45/56/51
f 43/11/52 42/4/52 46/1/52
f 47/10/53 43/11/53 46/1/53
f 48/57/54 43/8/54 47/5/54
f 49/58/55 48/57/55 47/5/55
f 2/56/56 9/59/56 3/55/56
f 2/56/57 12/60/57 9/59/57
f 2/56/57 17/61/57 12/60/57
f 2/56/58 21/44/58 17/61/58
f 2/56/57 24/43/57 21/44/57
f 2/56/57 29/44/57 24/43/57
f 2/56/58 50/61/58 29/44/58
f 2/56/57 51/60/57 50/61/57
f 2/56/57 52/59/57 51/60/57
f 2/56/59 44/55/59 52/59/59
f 53/62/60 54/63/60 55/64/60
f 56/65/61 53/62/61 55/64/61
f 56/65/62 55/64/62 57/66/62
f 58/67/63 56/65/63 57/66/63
f 58/67/64 57/66/64 59/68/64
f 60/69/65 58/67/65 59/68/65
f 60/69/66 59/68/66 61/70/66
f 62/71/67 60/69/67 61/70/67
f 62/71/68 61/70/68 63/72/68
f 64/73/69 62/71/69 63/72/69
f 64/73/70 63/72/70 65/74/70
f 66/75/71 64/73/71 65/74/71
f 66/76/72 65/77/72 67/78/72
f 68/79/73 66/76/73 67/78/73
f 68/79/74 67/78/74 69/80/74
f 70/81/75 68/79/75 69/80/75
f 70/81/76 69/80/76 71/82/76
f 72/83/77 70/81/77 71/82/77
f 72/83/78 71/82/78 73/84/78
f 74/85/79 72/83/79 73/84/79
f 74/85/80 73/84/80 75/86/80
f 76/87/81 74/85/81 75/86/81
f 76/87/82 75/86/82 77/88/82
f 78/89/83 76/87/83 77/88/83
f 79/90/84 53/62/84 56/65/84
f 80/91/85 79/90/85 56/65/85
f 80/91/86 56/65/86 58/67/86
f 81/92/87 80/91/87 58/67/87
f 81/92/88 58/67/88 60/69/88
f 82/93/89 81/92/89 60/69/89
f 82/93/90 60/69/90 62/71/90
f 83/94/91 82/93/91 62/71/91
f 83/94/92 62/71/92 64/73/92
f 84/95/93 83/94/93 64/73/93
f 84/95/94 64/73/94 66/75/94
f 85/96/95 84/95/95 66/75/95
f 85/97/96 66/76/96 68/79/96
f 86/98/97 85/97/97 68/79/97
f 86/98/98 68/79/98 70/81/98
f 87/99/99 86/98/99 70/81/99
f 87/99/100 70/81/100 72/83/100
f 88/100/101 87/99/101 72/83/101
f 88/100/102 72/83/102 74/85/102
f 89/101/103 88/100/103 74/85/103
f 89/101/104 74/85/104 76/87/104
f 90/102/105 89/101/105 76/87/105
f 90/102/106 76/87/106 78/89/106
f 91/103/107 90/102/107 78/89/107
f 92/104/108 79/103/108 80/102/108
f 93/104/109 80/102/109 81/101/109
f 94/104/110 81/101/110 82/100/110
f 95/104/111 82/100/111 83/99/111
f 96/104/112 83/99/112 84/98/112
f 97/104/113 84/98/113 85/97/113
f 98/105/114 85/96/114 86/95/114
f 99/105/115 86/95/115 87/94/115
f 100/105/116 87/94/116 88/93/116
f 101/105/117 88/93/117 89/92/117
f 102/105/118 89/92/118 90/91/118
f 103/105/119 90/91/119 91/90/119
f 29/44/120 50/61/120 104/106/120
f 30/33/121 29/44/121 104/106/121
f 33/27/122 30/33/122 104/106/122
f 50/61/123 51/60/123 105/107/123
f 106/106/124 50/61/124 105/107/124
f 35/108/125 33/27/125 106/106/125
f 105/107/126 35/108/126 106/106/126
f 51/60/127 52/59/127 107/109/127
f 108/107/128 51/60/128 107/109/128
f 39/15/129 35/108/129 108/107/129
f 107/109/130 39/15/130 108/107/130
f 42/7/131 39/15/131 109/109/131
f 44/55/132 42/7/132 109/109/132
f 52/59/133 44/55/133 109/109/133
f 7/9/134 8/12/134 110/110/134
f 111/111/135 7/9/135 110/110/135
f 15/21/136 16/24/136 112/112/136
f 113/113/137 15/21/137 112/112/137
f 114/114/138 115/115/138 113/113/138
f 112/112/139 114/114/139 113/113/139
f 16/24/140 20/30/140 116/116/140
f 117/112/141 16/24/141 116/116/141
f 118/117/142 114/114/142 117/112/142
f 116/116/143 118/117/143 117/112/143
f 27/39/144 28/42/144 119/118/144
f 120/119/145 27/39/145 119/118/145
f 28/45/146 32/46/146 121/120/146
f 122/121/147 28/45/147 121/120/147
f 37/49/148 38/51/148 123/122/148
f 124/123/149 37/49/149 123/122/149
f 125/124/150 126/125/150 124/123/150
f 123/122/151 125/124/151 124/123/151
f 38/51/152 41/54/152 127/126/152
f 128/122/153 38/51/153 127/126/153
f 129/127/154 125/124/154 128/122/154
f 127/126/155 129/127/155 128/122/155
f 48/57/156 49/58/156 130/128/156
f 131/129/157 48/57/157 130/128/157
f 11/22/158 15/21/158 132/130/158
f 6/11/159 11/22/159 132/130/159
f 8/12/160 6/11/160 132/130/160
f 43/8/161 48/57/161 133/131/161
f 40/53/162 43/8/162 133/131/162
f 41/54/163 40/53/163 133/131/163
f 15/21/164 134/113/164 135/132/164
f 136/130/165 15/21/165 135/132/165
f 137/110/166 8/12/166 136/130/166
f 135/132/167 137/110/167 136/130/167
f 138/133/168 137/110/168 139/132/168
f 140/134/169 138/133/169 139/132/169
f 134/113/170 115/115/170 140/134/170
f 139/132/171 134/113/171 140/134/171
f 48/57/172 141/129/172 142/135/172
f 143/131/173 48/57/173 142/135/173
f 144/126/174 41/54/174 143/131/174
f 142/135/175 144/126/175 143/131/175
f 129/127/176 144/126/176 145/135/176
f 146/136/177 129/127/177 145/135/177
f 141/129/178 147/137/178 146/136/178
f 145/135/179 141/129/179 146/136/179
f 23/40/180 27/39/180 148/138/180
f 19/29/181 23/40/181 148/138/181
f 20/30/182 19/29/182 148/138/182
f 34/50/183 37/49/183 149/139/183
f 31/34/184 34/50/184 149/139/184
f 32/46/185 31/34/185 149/139/185
f 27/39/186 150/119/186 151/140/186
f 152/138/187 27/39/187 151/140/187
f 153/116/188 20/30/188 152/138/188
f 151/140/189 153/116/189 152/138/189
f 118/117/190 153/116/190 154/140/190
f 155/141/191 118/117/191 154/140/191
f 150/119/192 156/142/192 155/141/192
f 154/140/193 150/119/193 155/141/193
f 37/49/194 157/123/194 158/143/194
f 159/139/195 37/49/195 158/143/195
f 160/120/196 32/46/196 159/139/196
f 158/143/197 160/120/197 159/139/197
f 161/144/198 160/120/198 162/143/198
f 163/145/199 161/144/199 162/143/199
f 157/123/200 126/125/200 163/145/200
f 162/143/201 157/123/201 163/145/201
f 114/114/202 118/117/202 164/141/202
f 115/115/203 114/114/203 164/141/203
f 165/134/204 115/115/204 164/141/204
f 166/136/205 165/136/205 164/145/205
f 129/127/206 166/136/206 164/145/206
f 125/124/207 129/127/207 164/145/207
f 126/125/208 125/124/208 164/145/208
f 167/145/209 126/125/209 164/145/209
f 166/134/210 147/133/210 168/146/210
f 165/136/211 166/136/211 168/147/211
f 138/137/212 165/136/212 168/147/212
f 169/147/213 138/137/213 168/147/213
f 168/147/214 170/148/214 169/147/214
f 164/145/215 156/144/215 171/149/215
f 167/145/216 164/145/216 171/149/216
f 161/142/217 167/141/217 171/150/217
f 172/149/218 161/144/218 171/149/218
f 171/149/219 173/151/219 172/149/219
f 174/146/220 170/152/220 175/153/220
f 138/133/221 174/146/221 175/153/221
f 110/110/222 138/133/222 175/153/222
f 111/111/223 110/110/223 175/153/223
f 131/129/224 130/128/224 176/154/224
f 147/137/225 131/129/225 176/154/225
f 177/147/226 147/137/226 176/154/226
f 178/148/227 177/147/227 176/154/227
f 120/119/228 119/118/228 179/155/228
f 156/142/229 120/119/229 179/155/229
f 180/150/230 156/142/230 179/155/230
f 173/156/231 180/150/231 179/155/231
f 181/149/232 173/151/232 182/157/232
f 161/144/233 181/149/233 182/157/233
f 121/120/234 161/144/234 182/157/234
f 122/121/235 121/120/235 182/157/235
