# Blender v2.67 (sub 0) OBJ File: ''
# www.blender.org
mtllib Drone.Wheel.Body.mtl
o Figure_1.001
v 0.222266 -0.029336 0.005998
v 0.222635 0.153238 0.005993
v 0.191718 0.153238 0.121413
v 0.193134 -0.029336 0.114684
v 0.169527 -0.028965 0.004302
v 0.142211 -0.028965 0.106256
v 0.169157 -0.104820 0.005995
v 0.143639 -0.104820 0.101217
v 0.107220 0.153238 0.205899
v 0.100486 -0.029336 0.194250
v 0.093754 -0.028965 0.180892
v -0.008200 0.153238 0.236832
v -0.008200 -0.029336 0.223366
v -0.008200 -0.028965 0.208207
v 0.087022 -0.104820 0.170920
v -0.008200 -0.104820 0.196434
v -0.123619 0.153238 0.205899
v -0.116888 -0.029336 0.194250
v -0.110153 -0.028965 0.180892
v -0.103420 -0.104820 0.170920
v -0.208111 0.153238 0.121413
v -0.209542 -0.029336 0.114686
v -0.155338 -0.028965 0.106256
v -0.239043 0.153238 0.005993
v -0.238658 -0.029336 0.005998
v -0.182657 -0.028965 0.004302
v -0.156764 -0.104820 0.101217
v -0.182272 -0.104820 0.005995
v -0.208111 0.153238 -0.109426
v -0.209542 -0.029336 -0.102687
v -0.155338 -0.028965 -0.097652
v -0.156764 -0.104820 -0.089226
v -0.116888 -0.029336 -0.170400
v -0.110155 -0.028965 -0.158734
v -0.008201 -0.029336 -0.199515
v -0.008200 -0.028965 -0.186051
v -0.103420 -0.104820 -0.140301
v -0.008200 -0.104820 -0.165813
v 0.100486 -0.029336 -0.170400
v 0.093753 -0.028965 -0.158734
v 0.087022 -0.104820 -0.140301
v 0.193134 -0.029336 -0.102690
v 0.142211 -0.028965 -0.097652
v 0.191718 0.153238 -0.109426
v 0.222635 0.153238 0.005993
v 0.222266 -0.029336 0.005998
v 0.169527 -0.028965 0.004302
v 0.143639 -0.104820 -0.089226
v 0.169157 -0.104820 0.005995
v -0.123619 0.153238 -0.193913
v -0.008200 0.153238 -0.224846
v 0.107220 0.153238 -0.193913
v 0.152952 0.324274 0.005997
v 0.215294 0.249098 0.005994
v 0.185362 0.249098 -0.105756
v 0.130041 0.324274 -0.079533
v 0.103548 0.249098 -0.187558
v 0.077328 0.327583 -0.142149
v -0.008203 0.249098 -0.217505
v -0.008203 0.327583 -0.165074
v -0.119953 0.249098 -0.187558
v -0.093733 0.327583 -0.142149
v -0.201755 0.249098 -0.105756
v -0.147107 0.324274 -0.079533
v -0.231702 0.249098 0.005994
v -0.170022 0.324274 0.005997
v -0.201755 0.249098 0.117745
v -0.147107 0.324274 0.091528
v -0.119953 0.249098 0.199559
v -0.093733 0.327583 0.154138
v -0.008203 0.249098 0.229491
v -0.008203 0.327583 0.177060
v 0.103548 0.249098 0.199559
v 0.077328 0.327583 0.154138
v 0.185362 0.249098 0.117745
v 0.130041 0.324274 0.091528
v 0.215294 0.249098 0.005994
v 0.152952 0.324274 0.005997
v 0.084373 0.333816 0.006006
v 0.071971 0.333816 -0.040282
v 0.038085 0.333816 -0.074168
v -0.008204 0.333816 -0.086572
v -0.054493 0.333816 -0.074168
v -0.088379 0.333816 -0.040282
v -0.100781 0.333816 0.006006
v -0.088379 0.333816 0.052295
v -0.054493 0.333816 0.086180
v -0.008204 0.333816 0.098583
v 0.038085 0.333816 0.086180
v 0.071971 0.333816 0.052295
v 0.084373 0.333816 0.006006
v -0.008204 0.333754 0.006011
v -0.008204 0.333754 0.006011
v -0.008204 0.333754 0.006011
v -0.008204 0.333754 0.006011
v -0.008204 0.333754 0.006011
v -0.008204 0.333754 0.006011
v -0.008204 0.333754 0.006011
v -0.008204 0.333754 0.006011
v -0.008204 0.333754 0.006011
v -0.008204 0.333754 0.006011
v -0.008204 0.333754 0.006011
v -0.008204 0.333754 0.006011
v -0.120813 0.113149 -0.195976
v -0.008200 0.112118 -0.225878
v -0.120813 0.113149 -0.195976
v 0.104413 0.113149 -0.195976
v -0.008200 0.112118 -0.225878
v 0.104413 0.113149 -0.195976
v 0.144276 -0.167470 0.098206
v 0.168988 -0.167470 0.005995
v -0.008199 -0.167470 0.182108
v 0.081805 -0.167470 0.157995
v -0.008199 -0.185680 0.162639
v 0.080289 -0.185680 0.138934
v -0.098203 -0.167470 0.157995
v -0.008199 -0.167470 0.182108
v -0.096688 -0.185680 0.138934
v -0.183580 -0.167470 0.005995
v -0.158865 -0.167470 0.098209
v -0.158865 -0.167470 -0.087912
v -0.183580 -0.167470 0.005995
v -0.008200 -0.167470 -0.164997
v -0.098203 -0.167470 -0.140878
v -0.008199 -0.185680 -0.147267
v -0.096688 -0.185680 -0.123556
v 0.081805 -0.167470 -0.140878
v -0.008200 -0.167470 -0.164997
v 0.080289 -0.185680 -0.123556
v 0.168988 -0.167470 0.005995
v 0.144276 -0.167470 -0.087912
v 0.119627 -0.104820 0.130779
v 0.119627 -0.104820 -0.110888
v 0.081805 -0.167470 0.157995
v 0.117933 -0.167470 0.123419
v 0.119627 -0.104820 0.130779
v 0.144276 -0.167470 0.098206
v 0.145073 -0.422721 0.094473
v 0.117933 -0.167470 0.123419
v 0.116543 -0.218905 0.114055
v 0.144276 -0.167470 -0.087912
v 0.117933 -0.167470 -0.110248
v 0.119627 -0.104820 -0.110888
v 0.081805 -0.167470 -0.140878
v 0.117933 -0.167470 -0.110248
v 0.116543 -0.218905 -0.100575
v 0.145073 -0.422721 -0.082504
v -0.140781 -0.104820 0.122102
v -0.140781 -0.104820 -0.104529
v -0.158865 -0.167470 0.098209
v -0.138242 -0.167470 0.118535
v -0.140781 -0.104820 0.122102
v -0.098203 -0.167470 0.157995
v -0.138242 -0.167470 0.118535
v -0.136041 -0.221746 0.111927
v -0.161458 -0.417919 0.094473
v -0.098203 -0.167470 -0.140878
v -0.138242 -0.167470 -0.105920
v -0.140781 -0.104820 -0.104529
v -0.158865 -0.167470 -0.087912
v -0.161458 -0.417919 -0.082504
v -0.138242 -0.167470 -0.105920
v -0.136041 -0.221746 -0.098612
v -0.136041 -0.221746 0.111927
v 0.116543 -0.218905 0.114055
v 0.116543 -0.218905 -0.100575
v -0.136041 -0.221746 -0.098612
v 0.173682 -0.417796 -0.025137
v 0.173682 -0.417796 0.037101
v 0.189194 -0.385494 0.005982
v -0.186904 -0.408886 0.040495
v -0.186904 -0.408886 -0.028529
v -0.203171 -0.379492 0.005982
v 0.173682 -0.417796 0.037101
v 0.180499 -0.291618 0.005987
v 0.180499 -0.291618 0.005987
v 0.173682 -0.417796 -0.025137
v 0.189194 -0.385494 0.005982
v -0.194476 -0.285339 0.005987
v -0.186904 -0.408886 0.040495
v -0.186904 -0.408886 -0.028529
v -0.194476 -0.285339 0.005987
vt 0.487120 0.518982
vt 0.487500 0.748244
vt 0.455691 0.748244
vt 0.457148 0.518982
vt 0.567140 0.519448
vt 0.512880 0.518982
vt 0.542852 0.518982
vt 0.595245 0.519448
vt 0.432479 0.424195
vt 0.432860 0.519448
vt 0.404755 0.519448
vt 0.406225 0.424195
vt 0.368755 0.748244
vt 0.361826 0.518982
vt 0.638174 0.518982
vt 0.645100 0.519448
vt 0.250004 0.748244
vt 0.250004 0.518982
vt 0.749996 0.518982
vt 0.749996 0.519448
vt 0.347974 0.424195
vt 0.354900 0.519448
vt 0.250004 0.519448
vt 0.250004 0.424195
vt 0.131255 0.748244
vt 0.138180 0.518982
vt 0.861820 0.518982
vt 0.854891 0.519448
vt 0.145109 0.519448
vt 0.152036 0.424195
vt 0.044325 0.748244
vt 0.042852 0.518982
vt 0.957148 0.518982
vt 0.901380 0.519448
vt 0.012500 0.748244
vt 0.012896 0.518982
vt 0.987104 0.518982
vt 0.929487 0.519448
vt 0.097153 0.424195
vt 0.098620 0.519448
vt 0.070513 0.519448
vt 0.070909 0.424195
vt 0.987500 0.748244
vt 0.955675 0.748244
vt 0.929091 0.424195
vt 0.902847 0.424195
vt 0.145107 0.519448
vt 0.250003 0.518982
vt 0.847964 0.424195
vt 0.854893 0.519448
vt 0.749996 0.424195
vt 0.354899 0.519448
vt 0.645101 0.519448
vt 0.652026 0.424195
vt 0.544309 0.748244
vt 0.512500 0.748244
vt 0.593776 0.424195
vt 0.567521 0.424195
vt 0.631245 0.748244
vt 0.749996 0.748244
vt 0.868745 0.748244
vt 0.584194 0.963018
vt 0.520053 0.868618
vt 0.550849 0.868618
vt 0.607766 0.963018
vt 0.635023 0.868618
vt 0.662000 0.967173
vt 0.749999 0.868618
vt 0.749999 0.967173
vt 0.864974 0.868618
vt 0.837997 0.967173
vt 0.949136 0.868618
vt 0.892911 0.963018
vt 0.979947 0.868618
vt 0.916487 0.963018
vt 0.083513 0.963018
vt 0.020053 0.868618
vt 0.050864 0.868618
vt 0.107089 0.963018
vt 0.135026 0.868618
vt 0.162003 0.967173
vt 0.250001 0.868618
vt 0.250001 0.967173
vt 0.364977 0.868618
vt 0.338000 0.967173
vt 0.449151 0.868618
vt 0.392234 0.963018
vt 0.479947 0.868618
vt 0.415806 0.963018
vt 0.654752 0.975000
vt 0.667512 0.975000
vt 0.702375 0.975000
vt 0.750000 0.975000
vt 0.797625 0.975000
vt 0.832488 0.975000
vt 0.845248 0.975000
vt 0.154752 0.975000
vt 0.167512 0.975000
vt 0.202375 0.975000
vt 0.250000 0.975000
vt 0.297625 0.975000
vt 0.332488 0.975000
vt 0.345248 0.975000
vt 0.250000 0.974922
vt 0.750000 0.974922
vt 0.865858 0.697904
vt 0.749996 0.696609
vt 0.749997 0.518982
vt 0.634133 0.697904
vt 0.406880 0.345524
vt 0.432305 0.345524
vt 0.250005 0.345524
vt 0.342606 0.345524
vt 0.250005 0.322658
vt 0.341047 0.322658
vt 0.157404 0.345524
vt 0.158963 0.322658
vt 0.069563 0.345524
vt 0.094992 0.345524
vt 0.905008 0.345524
vt 0.930437 0.345524
vt 0.749996 0.345524
vt 0.842596 0.345524
vt 0.749995 0.322658
vt 0.841037 0.322658
vt 0.657394 0.345524
vt 0.658953 0.322658
vt 0.567695 0.345524
vt 0.593120 0.345524
vt 0.381520 0.424195
vt 0.618480 0.424195
vt 0.379777 0.345524
vt 0.407700 0.025000
vt 0.378347 0.280936
vt 0.620223 0.345524
vt 0.621653 0.280936
vt 0.592300 0.025000
vt 0.113597 0.424195
vt 0.886403 0.424195
vt 0.116210 0.345524
vt 0.118474 0.277369
vt 0.092324 0.031030
vt 0.883790 0.345524
vt 0.907676 0.031030
vt 0.881526 0.277369
vt 0.437134 0.031184
vt 0.562866 0.031184
vt 0.546906 0.071747
vt 0.933856 0.042373
vt 0.066144 0.042373
vt 0.950593 0.079284
vt 0.453094 0.071747
vt 0.444148 0.189629
vt 0.555852 0.189629
vt 0.058353 0.197514
vt 0.049407 0.079284
vt 0.941647 0.197514
vn 0.965944 -0.001945 0.258743
vn 0.965902 -0.002051 0.258899
vn -0.006975 -0.999974 -0.001870
vn -0.006977 -0.999974 -0.001869
vn 0.965931 0.001067 0.258797
vn 0.965916 0.000988 0.258853
vn 0.706907 -0.020575 0.707007
vn 0.649813 -0.072245 0.756653
vn -0.006109 -0.999956 -0.007113
vn -0.024076 -0.999588 -0.015632
vn 0.258215 -0.070998 0.963475
vn 0.258113 -0.071064 0.963498
vn -0.006554 -0.999679 -0.024465
vn -0.006556 -0.999679 -0.024470
vn 0.255935 -0.148292 0.955252
vn 0.255962 -0.148259 0.955250
vn -0.258216 -0.071062 0.963470
vn -0.258110 -0.070992 0.963504
vn 0.006555 -0.999679 -0.024470
vn 0.006554 -0.999679 -0.024463
vn -0.255939 -0.148260 0.955256
vn -0.255965 -0.148297 0.955243
vn -0.705297 -0.071007 0.705347
vn -0.651312 -0.022841 0.758467
vn 0.016640 -0.999674 -0.019378
vn 0.006256 -0.999973 -0.003788
vn -0.965913 -0.001967 0.258860
vn -0.965939 -0.002029 0.258764
vn 0.006571 -0.999977 -0.001761
vn 0.006572 -0.999977 -0.001761
vn -0.965924 0.000965 0.258823
vn -0.965942 0.000876 0.258758
vn -0.965912 -0.002045 -0.258862
vn -0.965938 -0.001980 -0.258766
vn 0.006680 -0.999976 0.001789
vn 0.006679 -0.999976 0.001789
vn -0.965870 -0.010682 -0.258809
vn -0.965888 -0.010587 -0.258744
vn 0.006073 -0.999947 0.008310
vn 0.024142 -0.999549 0.017858
vn 0.007377 -0.999593 0.027537
vn 0.007380 -0.999593 0.027544
vn -0.250607 -0.249560 -0.935369
vn -0.250620 -0.249544 -0.935370
vn -0.007379 -0.999593 0.027545
vn -0.007378 -0.999594 0.027536
vn 0.250613 -0.249544 -0.935372
vn 0.250615 -0.249547 -0.935371
vn -0.016343 -0.999616 0.022362
vn -0.006756 -0.999963 0.005359
vn 0.965944 -0.002056 -0.258745
vn 0.965903 -0.001959 -0.258896
vn -0.007098 -0.999973 0.001902
vn -0.007096 -0.999973 0.001901
vn 0.965878 -0.010566 -0.258783
vn 0.965863 -0.010492 -0.258839
vn -0.000000 1.000000 0.000000
vn 0.753893 0.625197 -0.201928
vn 0.753878 0.625210 -0.201942
vn 0.561037 0.608591 -0.561119
vn 0.663075 0.528326 -0.530286
vn 0.217491 0.542225 -0.811597
vn 0.217537 0.542187 -0.811610
vn -0.217498 0.542192 -0.811617
vn -0.217532 0.542230 -0.811583
vn -0.594131 0.542232 -0.594131
vn -0.614260 0.617781 -0.490949
vn -0.757035 0.621081 -0.202872
vn -0.757016 0.621121 -0.202818
vn -0.757017 0.621105 0.202865
vn -0.757059 0.621066 0.202827
vn -0.562840 0.605405 0.562758
vn -0.659268 0.529307 0.534041
vn -0.217379 0.542299 0.811577
vn -0.217513 0.542190 0.811615
vn 0.217393 0.542204 0.811637
vn 0.217490 0.542313 0.811538
vn 0.594102 0.542296 0.594103
vn 0.615039 0.621725 0.484958
vn 0.753891 0.625199 0.201926
vn 0.753898 0.625185 0.201945
vn 0.137712 0.989785 -0.036889
vn 0.137702 0.989786 -0.036895
vn 0.126285 0.990525 -0.053966
vn 0.057935 0.996638 -0.057935
vn 0.021211 0.996638 -0.079134
vn 0.021205 0.996639 -0.079131
vn -0.021210 0.996639 -0.079132
vn -0.021207 0.996638 -0.079138
vn -0.100531 0.994382 -0.033143
vn -0.096477 0.990648 -0.096477
vn -0.136421 0.989976 -0.036550
vn -0.136422 0.989976 -0.036552
vn -0.136432 0.989975 0.036552
vn -0.136430 0.989975 0.036553
vn -0.124846 0.990702 0.054070
vn -0.057948 0.996636 0.057950
vn -0.021215 0.996636 0.079160
vn -0.021209 0.996636 0.079157
vn 0.021214 0.996636 0.079157
vn 0.021211 0.996636 0.079162
vn 0.101275 0.994320 0.032715
vn 0.097134 0.990520 0.097137
vn 0.137717 0.989784 0.036890
vn 0.137722 0.989783 0.036899
vn -0.000670 1.000000 0.000179
vn -0.000490 1.000000 0.000490
vn -0.000179 1.000000 0.000670
vn 0.000179 1.000000 0.000670
vn 0.000490 1.000000 0.000490
vn 0.000670 1.000000 0.000179
vn 0.000670 1.000000 -0.000179
vn 0.000490 1.000000 -0.000490
vn 0.000180 1.000000 -0.000669
vn -0.000180 1.000000 -0.000669
vn -0.000490 1.000000 -0.000490
vn -0.000670 1.000000 -0.000179
vn -0.707025 -0.013101 -0.707067
vn -0.708637 -0.020478 -0.705276
vn -0.582517 -0.159129 -0.797089
vn -0.258795 0.024212 -0.965629
vn -0.256227 0.031782 -0.966094
vn -0.254648 -0.177649 -0.950576
vn -0.254082 -0.177196 -0.950812
vn 0.258739 0.031566 -0.965431
vn 0.256345 0.024229 -0.966282
vn 0.254670 -0.177171 -0.950660
vn 0.254064 -0.177664 -0.950730
vn 0.582530 -0.159135 -0.797079
vn 0.708620 -0.020529 -0.705292
vn 0.707000 -0.013116 -0.707092
vn 0.965913 -0.002615 0.258852
vn 0.965912 -0.002609 0.258856
vn 0.252730 -0.215687 0.943190
vn 0.252688 -0.215618 0.943217
vn 0.180015 -0.718363 0.671974
vn 0.180017 -0.718379 0.671956
vn -0.252739 -0.215620 0.943203
vn -0.252684 -0.215697 0.943200
vn -0.180008 -0.718381 0.671957
vn -0.180023 -0.718357 0.671978
vn -0.965746 0.020159 0.258706
vn -0.965717 0.019959 0.258829
vn -0.965591 0.026960 -0.258664
vn -0.966871 0.020190 -0.254467
vn -0.258787 -0.012580 -0.965852
vn -0.258836 -0.012659 -0.965838
vn -0.188553 -0.685046 -0.703676
vn -0.188561 -0.685111 -0.703610
vn 0.258782 -0.012654 -0.965853
vn 0.258831 -0.012579 -0.965841
vn 0.188541 -0.685103 -0.703623
vn 0.188572 -0.685050 -0.703667
vn 0.965913 -0.002601 -0.258852
vn 0.967066 0.004499 -0.254487
vn 0.767409 -0.150053 0.623352
vn 0.836467 -0.073463 0.543071
vn 0.775927 -0.027259 0.630233
vn 0.668210 -0.069707 -0.740700
vn 0.777382 -0.123843 -0.616718
vn 0.651348 -0.233263 -0.722035
vn 0.677127 -0.202337 0.707502
vn 0.772713 -0.094639 0.627660
vn 0.776021 -0.022393 0.630310
vn 0.687749 -0.103027 0.718600
vn 0.691404 -0.008407 0.722419
vn -0.452623 -0.147844 0.879360
vn -0.174384 -0.705020 0.687414
vn 0.683759 -0.148531 0.714432
vn 0.646669 -0.009410 -0.762712
vn 0.669618 -0.025689 -0.742261
vn 0.669025 -0.048881 -0.741630
vn 0.646475 -0.025270 -0.762516
vn 0.510059 -0.614737 -0.601613
vn 0.403974 -0.179587 -0.896969
vn 0.442152 -0.017623 -0.896767
vn 0.638485 -0.158863 -0.753060
vn -0.793878 -0.025435 0.607544
vn -0.854109 -0.055891 0.517082
vn -0.785295 -0.148712 0.600996
vn -0.672949 -0.230551 -0.702842
vn -0.799933 -0.099873 -0.591719
vn -0.690017 -0.067090 -0.720677
vn -0.701920 -0.010654 0.712176
vn -0.792370 -0.066637 0.606390
vn -0.779953 -0.188084 0.596907
vn -0.700281 -0.068835 0.710540
vn -0.547082 -0.626553 0.555097
vn -0.480872 -0.125140 0.867814
vn -0.527690 -0.007204 0.849407
vn -0.697351 -0.114408 0.707540
vn -0.656942 -0.047775 -0.752426
vn -0.691530 -0.011990 -0.722248
vn -0.691552 0.008053 -0.722281
vn -0.657684 -0.009931 -0.753228
vn -0.657687 -0.009458 -0.753232
vn 0.293074 -0.115899 -0.949039
vn 0.159582 -0.673384 -0.721864
vn -0.652363 -0.127059 -0.747181
vn -0.236764 -0.403483 0.883823
vn 0.104111 -0.915492 0.388633
vn -0.000002 -0.599388 0.800458
vn 0.011247 -0.999937 -0.000000
vn -0.401477 -0.775304 -0.487566
vn 0.032669 -0.992002 -0.121921
vn -0.042383 -0.986501 -0.158173
vn 0.675647 -0.737225 -0.000000
vn -0.888779 -0.084467 0.450486
vn -0.961123 -0.276119 -0.000000
vn -0.965335 -0.112498 -0.235526
vn 0.169655 -0.985504 0.000000
vn 0.901446 -0.432891 0.000000
vn 0.896756 -0.077422 -0.435700
vn 0.964993 -0.262277 -0.000000
vn 0.971841 -0.108751 0.209041
vn -0.334534 -0.942384 0.000000
vn -0.874952 -0.484209 0.000000
vn 0.856830 0.079334 0.509458
vn 0.890982 0.062749 0.449682
vn 0.929625 -0.002487 0.368498
vn 0.962066 0.089188 0.257825
vn 0.963210 0.089323 -0.253472
vn 0.930811 -0.004838 -0.365468
vn 0.890962 0.062794 -0.449715
vn 0.856802 0.079386 -0.509498
vn -0.962083 0.088921 0.257855
vn -0.934724 0.004378 0.355347
vn -0.898213 0.066318 0.434529
vn -0.873379 0.080631 0.480321
vn -0.873345 0.080679 -0.480374
vn -0.898199 0.066354 -0.434552
vn -0.935879 0.002081 -0.352315
vn -0.963225 0.089057 -0.253507
usemtl Metal.001
s off
f 1/1/1 2/2/1 3/3/1
f 4/4/2 1/1/2 3/3/2
f 5/5/3 1/6/3 4/7/3
f 6/8/4 5/5/4 4/7/4
f 7/9/5 5/10/5 6/11/5
f 8/12/6 7/9/6 6/11/6
f 4/4/7 3/3/7 9/13/7
f 10/14/8 4/4/8 9/13/8
f 6/8/9 4/7/9 10/15/9
f 11/16/10 6/8/10 10/15/10
f 10/14/11 9/13/11 12/17/11
f 13/18/12 10/14/12 12/17/12
f 11/16/13 10/15/13 13/19/13
f 14/20/14 11/16/14 13/19/14
f 15/21/15 11/22/15 14/23/15
f 16/24/16 15/21/16 14/23/16
f 13/18/17 12/17/17 17/25/17
f 18/26/18 13/18/18 17/25/18
f 14/20/19 13/19/19 18/27/19
f 19/28/20 14/20/20 18/27/20
f 16/24/21 14/23/21 19/29/21
f 20/30/22 16/24/22 19/29/22
f 18/26/23 17/25/23 21/31/23
f 22/32/24 18/26/24 21/31/24
f 19/28/25 18/27/25 22/33/25
f 23/34/26 19/28/26 22/33/26
f 22/32/27 21/31/27 24/35/27
f 25/36/28 22/32/28 24/35/28
f 23/34/29 22/33/29 25/37/29
f 26/38/30 23/34/30 25/37/30
f 27/39/31 23/40/31 26/41/31
f 28/42/32 27/39/32 26/41/32
f 25/37/33 24/43/33 29/44/33
f 30/33/34 25/37/34 29/44/34
f 26/41/35 25/36/35 30/32/35
f 31/40/36 26/41/36 30/32/36
f 28/45/37 26/38/37 31/34/37
f 32/46/38 28/45/38 31/34/38
f 31/40/39 30/32/39 33/26/39
f 34/47/40 31/40/40 33/26/40
f 34/47/41 33/26/41 35/48/41
f 36/23/42 34/47/42 35/48/42
f 37/49/43 34/50/43 36/20/43
f 38/51/44 37/49/44 36/20/44
f 36/23/45 35/48/45 39/14/45
f 40/52/46 36/23/46 39/14/46
f 38/51/47 36/20/47 40/53/47
f 41/54/48 38/51/48 40/53/48
f 40/52/49 39/14/49 42/4/49
f 43/11/50 40/52/50 42/4/50
f 42/7/51 44/55/51 45/56/51
f 46/6/52 42/7/52 45/56/52
f 43/11/53 42/4/53 46/1/53
f 47/10/54 43/11/54 46/1/54
f 48/57/55 43/8/55 47/5/55
f 49/58/56 48/57/56 47/5/56
f 2/56/57 9/59/57 3/55/57
f 2/56/57 12/60/57 9/59/57
f 2/56/57 17/61/57 12/60/57
f 2/56/57 21/44/57 17/61/57
f 2/56/57 24/43/57 21/44/57
f 2/56/57 29/44/57 24/43/57
f 2/56/57 50/61/57 29/44/57
f 2/56/57 51/60/57 50/61/57
f 2/56/57 52/59/57 51/60/57
f 2/56/57 44/55/57 52/59/57
f 53/62/58 54/63/58 55/64/58
f 56/65/59 53/62/59 55/64/59
f 56/65/60 55/64/60 57/66/60
f 58/67/61 56/65/61 57/66/61
f 58/67/62 57/66/62 59/68/62
f 60/69/63 58/67/63 59/68/63
f 60/69/64 59/68/64 61/70/64
f 62/71/65 60/69/65 61/70/65
f 62/71/66 61/70/66 63/72/66
f 64/73/67 62/71/67 63/72/67
f 64/73/68 63/72/68 65/74/68
f 66/75/69 64/73/69 65/74/69
f 66/76/70 65/77/70 67/78/70
f 68/79/71 66/76/71 67/78/71
f 68/79/72 67/78/72 69/80/72
f 70/81/73 68/79/73 69/80/73
f 70/81/74 69/80/74 71/82/74
f 72/83/75 70/81/75 71/82/75
f 72/83/76 71/82/76 73/84/76
f 74/85/77 72/83/77 73/84/77
f 74/85/78 73/84/78 75/86/78
f 76/87/79 74/85/79 75/86/79
f 76/87/80 75/86/80 77/88/80
f 78/89/81 76/87/81 77/88/81
f 79/90/82 53/62/82 56/65/82
f 80/91/83 79/90/83 56/65/83
f 80/91/84 56/65/84 58/67/84
f 81/92/85 80/91/85 58/67/85
f 81/92/86 58/67/86 60/69/86
f 82/93/87 81/92/87 60/69/87
f 82/93/88 60/69/88 62/71/88
f 83/94/89 82/93/89 62/71/89
f 83/94/90 62/71/90 64/73/90
f 84/95/91 83/94/91 64/73/91
f 84/95/92 64/73/92 66/75/92
f 85/96/93 84/95/93 66/75/93
f 85/97/94 66/76/94 68/79/94
f 86/98/95 85/97/95 68/79/95
f 86/98/96 68/79/96 70/81/96
f 87/99/97 86/98/97 70/81/97
f 87/99/98 70/81/98 72/83/98
f 88/100/99 87/99/99 72/83/99
f 88/100/100 72/83/100 74/85/100
f 89/101/101 88/100/101 74/85/101
f 89/101/102 74/85/102 76/87/102
f 90/102/103 89/101/103 76/87/103
f 90/102/104 76/87/104 78/89/104
f 91/103/105 90/102/105 78/89/105
f 92/104/106 79/103/106 80/102/106
f 93/104/107 80/102/107 81/101/107
f 94/104/108 81/101/108 82/100/108
f 95/104/109 82/100/109 83/99/109
f 96/104/110 83/99/110 84/98/110
f 97/104/111 84/98/111 85/97/111
f 98/105/112 85/96/112 86/95/112
f 99/105/113 86/95/113 87/94/113
f 100/105/114 87/94/114 88/93/114
f 101/105/115 88/93/115 89/92/115
f 102/105/116 89/92/116 90/91/116
f 103/105/117 90/91/117 91/90/117
f 29/44/118 50/61/118 104/106/118
f 30/33/119 29/44/119 104/106/119
f 33/27/120 30/33/120 104/106/120
f 50/61/121 51/60/121 105/107/121
f 106/106/122 50/61/122 105/107/122
f 35/108/123 33/27/123 106/106/123
f 105/107/124 35/108/124 106/106/124
f 51/60/125 52/59/125 107/109/125
f 108/107/126 51/60/126 107/109/126
f 39/15/127 35/108/127 108/107/127
f 107/109/128 39/15/128 108/107/128
f 42/7/129 39/15/129 109/109/129
f 44/55/130 42/7/130 109/109/130
f 52/59/131 44/55/131 109/109/131
f 7/9/132 8/12/132 110/110/132
f 111/111/133 7/9/133 110/110/133
f 15/21/134 16/24/134 112/112/134
f 113/113/135 15/21/135 112/112/135
f 114/114/136 115/115/136 113/113/136
f 112/112/137 114/114/137 113/113/137
f 16/24/138 20/30/138 116/116/138
f 117/112/139 16/24/139 116/116/139
f 118/117/140 114/114/140 117/112/140
f 116/116/141 118/117/141 117/112/141
f 27/39/142 28/42/142 119/118/142
f 120/119/143 27/39/143 119/118/143
f 28/45/144 32/46/144 121/120/144
f 122/121/145 28/45/145 121/120/145
f 37/49/146 38/51/146 123/122/146
f 124/123/147 37/49/147 123/122/147
f 125/124/148 126/125/148 124/123/148
f 123/122/149 125/124/149 124/123/149
f 38/51/150 41/54/150 127/126/150
f 128/122/151 38/51/151 127/126/151
f 129/127/152 125/124/152 128/122/152
f 127/126/153 129/127/153 128/122/153
f 48/57/154 49/58/154 130/128/154
f 131/129/155 48/57/155 130/128/155
f 11/22/156 15/21/156 132/130/156
f 6/11/157 11/22/157 132/130/157
f 8/12/158 6/11/158 132/130/158
f 43/8/159 48/57/159 133/131/159
f 40/53/160 43/8/160 133/131/160
f 41/54/161 40/53/161 133/131/161
f 15/21/162 134/113/162 135/132/162
f 136/130/163 15/21/163 135/132/163
f 137/110/164 8/12/164 136/130/164
f 135/132/165 137/110/165 136/130/165
f 138/133/166 137/110/166 139/132/166
f 140/134/167 138/133/167 139/132/167
f 134/113/168 115/115/168 140/134/168
f 139/132/169 134/113/169 140/134/169
f 48/57/170 141/129/170 142/135/170
f 143/131/171 48/57/171 142/135/171
f 144/126/172 41/54/172 143/131/172
f 142/135/173 144/126/173 143/131/173
f 129/127/174 144/126/174 145/135/174
f 146/136/175 129/127/175 145/135/175
f 141/129/176 147/137/176 146/136/176
f 145/135/177 141/129/177 146/136/177
f 23/40/178 27/39/178 148/138/178
f 19/29/179 23/40/179 148/138/179
f 20/30/180 19/29/180 148/138/180
f 34/50/181 37/49/181 149/139/181
f 31/34/182 34/50/182 149/139/182
f 32/46/183 31/34/183 149/139/183
f 27/39/184 150/119/184 151/140/184
f 152/138/185 27/39/185 151/140/185
f 153/116/186 20/30/186 152/138/186
f 151/140/187 153/116/187 152/138/187
f 118/117/188 153/116/188 154/140/188
f 155/141/189 118/117/189 154/140/189
f 150/119/190 156/142/190 155/141/190
f 154/140/191 150/119/191 155/141/191
f 37/49/192 157/123/192 158/143/192
f 159/139/193 37/49/193 158/143/193
f 160/120/194 32/46/194 159/139/194
f 158/143/195 160/120/195 159/139/195
f 161/144/196 160/120/196 162/143/196
f 163/145/197 161/144/197 162/143/197
f 157/123/198 126/125/198 163/145/198
f 162/143/199 157/123/199 163/145/199
f 114/114/200 118/117/200 164/141/200
f 115/115/201 114/114/201 164/141/201
f 165/134/202 115/115/202 164/141/202
f 166/136/203 165/136/203 164/145/203
f 129/127/204 166/136/204 164/145/204
f 125/124/205 129/127/205 164/145/205
f 126/125/206 125/124/206 164/145/206
f 167/145/207 126/125/207 164/145/207
f 166/134/208 147/133/208 168/146/208
f 165/136/209 166/136/209 168/147/209
f 138/137/210 165/136/210 168/147/210
f 169/147/211 138/137/211 168/147/211
f 168/147/212 170/148/212 169/147/212
f 164/145/213 156/144/213 171/149/213
f 167/145/214 164/145/214 171/149/214
f 161/142/215 167/141/215 171/150/215
f 172/149/216 161/144/216 171/149/216
f 171/149/217 173/151/217 172/149/217
f 174/146/218 170/152/218 175/153/218
f 138/133/219 174/146/219 175/153/219
f 110/110/220 138/133/220 175/153/220
f 111/111/221 110/110/221 175/153/221
f 131/129/222 130/128/222 176/154/222
f 147/137/223 131/129/223 176/154/223
f 177/147/224 147/137/224 176/154/224
f 178/148/225 177/147/225 176/154/225
f 120/119/226 119/118/226 179/155/226
f 156/142/227 120/119/227 179/155/227
f 180/150/228 156/142/228 179/155/228
f 173/156/229 180/150/229 179/155/229
f 181/149/230 173/151/230 182/157/230
f 161/144/231 181/149/231 182/157/231
f 121/120/232 161/144/232 182/157/232
f 122/121/233 121/120/233 182/157/233
